<svg version="1.0" xmlns="http://www.w3.org/2000/svg"
 width="868.000000pt" height="868.000000pt" viewBox="0 0 868.000000 868.000000"
 preserveAspectRatio="xMidYMid meet">
<g transform="translate(0.000000,868.000000) scale(0.100000,-0.100000)"
fill="#000000" stroke="none">
<path d="M4165 6849 c-209 -25 -257 -32 -335 -50 -465 -111 -818 -298 -1183
-629 -113 -102 -132 -131 -71 -110 29 10 3613 10 3644 0 83 -28 -240 254 -450
392 -206 136 -509 266 -785 338 -218 56 -606 85 -820 59z"/>
<path d="M1840 5844 c-47 -7 -103 -17 -125 -22 -71 -18 -90 -25 -205 -76 -62
-28 -181 -103 -246 -158 -200 -165 -341 -399 -396 -658 -17 -83 -20 -145 -25
-503 -7 -567 8 -710 97 -919 165 -386 506 -641 933 -698 106 -14 4919 -14
5037 0 445 53 828 365 966 787 50 152 56 221 61 645 8 596 -12 751 -126 975
-102 202 -248 357 -456 487 -108 67 -292 127 -440 145 -142 17 -4963 13 -5075
-5z m5165 -97 c168 -45 243 -78 360 -156 185 -123 340 -318 413 -521 57 -157
57 -152 57 -735 0 -533 0 -541 -23 -630 -23 -87 -31 -110 -74 -205 -108 -240
-366 -466 -628 -550 -160 -52 -115 -50 -1421 -50 -670 0 -1219 4 -1219 8 0 5
23 24 52 42 66 43 178 149 234 221 59 77 108 177 141 284 27 90 27 90 34 855
7 776 8 797 47 910 100 287 357 503 642 540 36 4 349 7 695 6 546 -2 638 -5
690 -19z m-3968 -617 c140 -19 273 -75 289 -122 11 -32 7 -169 -5 -201 -14
-35 -27 -34 -110 8 -98 50 -163 67 -257 67 -70 0 -87 -3 -122 -26 -53 -33 -71
-62 -79 -124 -10 -89 40 -149 187 -219 36 -17 104 -50 152 -72 177 -85 252
-151 305 -268 23 -51 26 -71 26 -163 0 -119 -14 -172 -68 -255 -51 -81 -104
-129 -186 -169 -116 -57 -176 -69 -324 -69 -149 1 -248 22 -350 76 -74 39 -95
75 -95 163 0 114 30 152 93 118 178 -95 288 -123 404 -103 87 15 130 37 171
87 28 35 32 48 32 98 0 106 -40 141 -296 264 -164 78 -256 145 -306 223 -57
86 -63 110 -63 242 1 115 2 123 34 188 40 84 78 128 148 173 82 52 157 73 330
93 6 0 47 -4 90 -9z m-812 -30 c14 -16 18 -37 17 -107 0 -131 17 -124 -325
-122 -280 1 -280 1 -279 -192 0 -194 0 -194 249 -199 248 -5 248 -5 261 -45
16 -45 10 -159 -9 -181 -9 -11 -60 -14 -258 -14 -246 0 -246 0 -244 -221 1
-122 4 -223 6 -226 3 -2 133 -4 289 -3 256 0 287 -1 299 -16 10 -12 14 -44 14
-104 0 -142 40 -131 -456 -128 -417 3 -417 3 -443 27 -26 24 -26 24 -26 760 1
563 4 740 13 752 29 37 44 38 463 39 398 0 411 -1 429 -20z m2083 0 c115 -30
193 -73 252 -137 61 -66 73 -89 95 -173 38 -141 15 -323 -55 -442 -49 -82
-113 -139 -205 -183 -95 -45 -163 -58 -334 -64 -144 -6 -144 -6 -142 -253 2
-160 -1 -254 -8 -267 -22 -39 -206 -55 -283 -23 -28 12 -28 12 -28 758 0 746
0 746 29 775 29 29 29 29 315 29 255 0 295 -2 364 -20z"/>
<path d="M5470 5140 c-151 -19 -321 -95 -346 -156 -16 -38 -19 -150 -4 -188
12 -33 30 -33 82 0 156 99 344 122 432 53 66 -52 88 -181 44 -260 -47 -85
-133 -120 -310 -127 -128 -5 -128 -5 -139 -46 -14 -51 -8 -158 10 -180 11 -13
35 -16 131 -16 117 0 214 -16 271 -45 49 -26 96 -90 109 -148 25 -109 -34
-207 -145 -241 -114 -37 -264 -18 -417 51 -43 20 -84 33 -92 30 -36 -14 -31
-204 6 -244 22 -24 143 -73 226 -93 78 -18 302 -16 392 4 152 33 295 129 349
234 42 83 54 134 54 237 0 88 -3 107 -27 157 -16 34 -47 75 -76 101 -54 48
-146 97 -185 97 -43 0 -36 18 17 43 64 29 131 94 163 157 32 64 49 192 35 269
-16 89 -55 165 -103 205 -51 40 -114 73 -176 91 -60 17 -219 25 -301 15z"/>
<path d="M6325 5108 c-46 -26 -44 -5 -45 -776 0 -734 0 -734 31 -764 30 -31
30 -31 337 -25 320 6 431 19 509 60 18 9 38 17 46 17 29 0 166 102 216 162
129 152 178 330 168 604 -4 105 -12 173 -27 228 -73 275 -272 445 -575 492
-115 18 -630 19 -660 2z m630 -266 c155 -47 255 -167 295 -354 16 -73 7 -281
-16 -368 -43 -164 -134 -259 -294 -309 -58 -17 -306 -26 -325 -11 -13 11 -15
76 -15 520 0 280 3 515 6 524 9 25 266 23 349 -2z"/>
<path d="M3920 4878 c-1 -2 -2 -123 -3 -271 -2 -267 -2 -267 91 -267 108 0
172 14 225 48 140 92 144 360 7 444 -50 30 -140 47 -252 48 -38 0 -68 -1 -68
-2z"/>
<path d="M2543 2597 c-3 -5 -3 -10 -2 -11 2 -1 47 -41 99 -88 313 -279 583
-443 915 -553 176 -59 296 -89 430 -109 216 -31 397 -40 553 -27 150 12 326
35 397 51 72 16 298 87 400 125 269 101 551 280 781 496 44 42 91 82 103 88
12 7 21 17 19 22 -4 12 -3688 18 -3695 6z"/>
</g>
</svg>
